<svg width="16" height="16" viewBox="0 0 16 16" fill="none" xmlns="http://www.w3.org/2000/svg">
<path fill-rule="evenodd" clip-rule="evenodd" d="M4.15417 9.94999C4.15417 8.48298 4.30838 6.87098 4.88919 5.65641C5.17186 5.06531 5.54028 4.60127 6.01335 4.28208C6.48053 3.96686 7.11283 3.75 7.99998 3.75C8.88713 3.75 9.51943 3.96686 9.98661 4.28208C10.4597 4.60127 10.8281 5.06531 11.1108 5.65641C11.6916 6.87098 11.8458 8.48298 11.8458 9.94999C11.8458 10.2708 11.9988 10.5647 12.2457 10.75L6.6371 10.75H3.75428C4.00117 10.5647 4.15417 10.2708 4.15417 9.94999ZM14.4319 11.9473C14.4318 11.9476 14.4317 11.9479 13.4515 11.75L14.4317 11.9479C14.3375 12.4145 13.9275 12.75 13.4515 12.75L10.2528 12.75C10.1571 12.9684 10.0306 13.1849 9.86647 13.3847C9.44968 13.8921 8.81875 14.25 7.99999 14.25C7.18124 14.25 6.55031 13.8921 6.13352 13.3847C5.96938 13.1849 5.84293 12.9684 5.74716 12.75H3.74096H2.86787H2.63096H2.5694H2.55372H2.54977H2.54877H2.54852L2.54844 11.75C1.56822 11.9479 1.56815 11.9476 1.56809 11.9473L1.56796 11.9466L1.56768 11.9452L1.56704 11.942L1.56544 11.9338L1.56116 11.9107C1.55787 11.8925 1.55375 11.8685 1.54921 11.8395C1.54017 11.7816 1.52928 11.7026 1.52006 11.6081C1.50202 11.4234 1.48829 11.1597 1.51479 10.8711C1.54833 10.5057 1.6763 9.85722 2.16091 9.39982C2.19714 7.96087 2.39347 6.23944 3.08489 4.79358C3.48366 3.95969 4.06169 3.18623 4.89472 2.62417C5.73364 2.05814 6.76708 1.75 7.99998 1.75C9.23288 1.75 10.2663 2.05814 11.1052 2.62417C11.9383 3.18623 12.5163 3.95969 12.9151 4.79358C13.6065 6.23943 13.8028 7.96085 13.839 9.39979C14.3237 9.85719 14.4517 10.5056 14.4852 10.8711C14.5117 11.1598 14.498 11.4235 14.4799 11.6082C14.4707 11.7027 14.4598 11.7817 14.4507 11.8395C14.4462 11.8685 14.4421 11.8925 14.4388 11.9108L14.4345 11.9338L14.4329 11.942L14.4323 11.9453L14.432 11.9467L14.4319 11.9473ZM2.54844 11.75V12.75C2.07244 12.75 1.66241 12.4145 1.56822 11.9479L2.54844 11.75Z" fill="#0075BE"/>
</svg>
