<svg width="24" height="24" viewBox="0 0 24 24" fill="none" xmlns="http://www.w3.org/2000/svg">
<path d="M21.5859 15.125C21.8464 15.125 22.0781 15.1797 22.2812 15.2891C22.4844 15.3984 22.6406 15.5495 22.75 15.7422C22.8594 15.9297 22.9141 16.1406 22.9141 16.375C22.9141 16.6094 22.8594 16.8229 22.75 17.0156C22.6406 17.2031 22.4844 17.3516 22.2812 17.4609C22.0781 17.5703 21.8464 17.625 21.5859 17.625C21.3255 17.625 21.0938 17.5703 20.8906 17.4609C20.6927 17.3516 20.5391 17.2031 20.4297 17.0156C20.3203 16.8229 20.2656 16.6094 20.2656 16.375C20.2656 16.1406 20.3203 15.9297 20.4297 15.7422C20.5391 15.5495 20.6927 15.3984 20.8906 15.2891C21.0938 15.1797 21.3255 15.125 21.5859 15.125Z" fill="#000000"/>
<path d="M10.6016 17.5391V15.9219L14.2812 12.0312C14.8021 11.4531 15.1719 10.9661 15.3906 10.5703C15.6146 10.1693 15.7266 9.80729 15.7266 9.48438C15.7266 8.98438 15.6016 8.59635 15.3516 8.32031C15.1068 8.03906 14.7578 7.89844 14.3047 7.89844C13.9818 7.89844 13.7005 7.97917 13.4609 8.14062C13.2266 8.30208 13.0469 8.52604 12.9219 8.8125C12.7969 9.09375 12.7344 9.41406 12.7344 9.77344H10.375C10.375 9.08073 10.5391 8.44792 10.8672 7.875C11.1953 7.29688 11.6615 6.84115 12.2656 6.50781C12.8698 6.16927 13.5651 6 14.3516 6C15.1536 6 15.8333 6.13021 16.3906 6.39062C16.9479 6.64583 17.3698 7.01823 17.6562 7.50781C17.9427 7.99219 18.0859 8.57552 18.0859 9.25781C18.0859 9.7526 17.9844 10.2318 17.7812 10.6953C17.5833 11.1589 17.3021 11.6224 16.9375 12.0859C16.5781 12.5443 16.1068 13.0755 15.5234 13.6797L13.6484 15.6406H18.4297V17.5391H10.6016Z" fill="#000000"/>
</svg>
